<svg xmlns="http://www.w3.org/2000/svg" xmlns:xlink="http://www.w3.org/1999/xlink" width="864" zoomAndPan="magnify" viewBox="0 0 648 133.500001" height="178" preserveAspectRatio="xMidYMid meet" version="1.0"><defs><clipPath id="a60e1ca77f"><path d="M 1.207031 8 L 58 8 L 58 73 L 1.207031 73 Z M 1.207031 8 " clip-rule="nonzero"/></clipPath><clipPath id="edbda0d9ce"><path d="M 326 106 L 346 106 L 346 132.253906 L 326 132.253906 Z M 326 106 " clip-rule="nonzero"/></clipPath><clipPath id="8f5962da52"><path d="M 467 0 L 646.789062 0 L 646.789062 79 L 467 79 Z M 467 0 " clip-rule="nonzero"/></clipPath><clipPath id="ca8d5d264c"><path d="M 467.171875 0 L 609.777344 0 C 630.085938 0 646.703125 16.605469 646.703125 36.898438 L 646.703125 78.105469 L 504.09375 78.105469 C 483.785156 78.105469 467.171875 61.503906 467.171875 41.207031 Z M 536.207031 65.730469 L 543.273438 65.730469 L 543.273438 44.074219 L 554.972656 44.074219 L 567.691406 65.730469 L 575.859375 65.730469 L 562.824219 43.605469 C 570.597656 42.113281 573.894531 37.328125 573.894531 28.222656 C 573.894531 17.003906 568.871094 12.375 556.699219 12.375 L 536.207031 12.375 Z M 543.273438 37.640625 L 543.273438 18.808594 L 556.070312 18.808594 C 564.082031 18.808594 566.828125 21.398438 566.828125 28.222656 C 566.828125 35.050781 564.082031 37.640625 556.070312 37.640625 Z M 600.328125 66.671875 C 614.226562 66.671875 621.058594 59.535156 621.058594 45.410156 L 621.058594 32.699219 C 621.058594 18.574219 614.226562 11.433594 600.328125 11.433594 C 586.433594 11.433594 579.601562 18.574219 579.601562 32.699219 L 579.601562 45.410156 C 579.601562 59.535156 586.429688 66.671875 600.328125 66.671875 Z M 600.328125 60.238281 C 590.90625 60.238281 586.667969 55.609375 586.667969 45.410156 L 586.667969 32.699219 C 586.667969 22.496094 590.90625 17.867188 600.328125 17.867188 C 609.75 17.867188 613.988281 22.496094 613.988281 32.699219 L 613.988281 45.410156 C 613.988281 55.609375 609.75 60.238281 600.328125 60.238281 Z M 492.816406 65.730469 L 499.882812 65.730469 L 499.882812 45.09375 L 512.917969 45.09375 C 525.402344 45.09375 530.742188 40.230469 530.742188 28.773438 C 530.742188 17.316406 525.402344 12.375 512.917969 12.375 L 492.816406 12.375 Z M 499.882812 38.660156 L 499.882812 18.808594 L 512.445312 18.808594 C 520.691406 18.808594 523.671875 21.632812 523.671875 28.773438 C 523.671875 35.914062 520.691406 38.660156 512.445312 38.660156 Z M 499.882812 38.660156 " clip-rule="evenodd"/></clipPath><linearGradient x1="5681.626308" gradientTransform="matrix(0.0819964, 0, 0, 0.0819457, 1.297178, 0.00000498134)" y1="0.00843646" x2="7871.155261" gradientUnits="userSpaceOnUse" y2="953.14787" id="d226a7d74f"><stop stop-opacity="1" stop-color="rgb(49.798584%, 70.588684%, 16.859436%)" offset="0"/><stop stop-opacity="1" stop-color="rgb(49.679565%, 70.570374%, 17.050171%)" offset="0.0078125"/><stop stop-opacity="1" stop-color="rgb(49.440002%, 70.533752%, 17.433167%)" offset="0.015625"/><stop stop-opacity="1" stop-color="rgb(49.201965%, 70.497131%, 17.816162%)" offset="0.0234375"/><stop stop-opacity="1" stop-color="rgb(48.962402%, 70.46051%, 18.199158%)" offset="0.03125"/><stop stop-opacity="1" stop-color="rgb(48.724365%, 70.423889%, 18.582153%)" offset="0.0390625"/><stop stop-opacity="1" stop-color="rgb(48.484802%, 70.387268%, 18.965149%)" offset="0.046875"/><stop stop-opacity="1" stop-color="rgb(48.245239%, 70.350647%, 19.348145%)" offset="0.0546875"/><stop stop-opacity="1" stop-color="rgb(48.007202%, 70.3125%, 19.73114%)" offset="0.0625"/><stop stop-opacity="1" stop-color="rgb(47.767639%, 70.275879%, 20.114136%)" offset="0.0703125"/><stop stop-opacity="1" stop-color="rgb(47.529602%, 70.239258%, 20.497131%)" offset="0.078125"/><stop stop-opacity="1" stop-color="rgb(47.290039%, 70.202637%, 20.880127%)" offset="0.0859375"/><stop stop-opacity="1" stop-color="rgb(47.052002%, 70.166016%, 21.263123%)" offset="0.09375"/><stop stop-opacity="1" stop-color="rgb(46.812439%, 70.129395%, 21.646118%)" offset="0.101562"/><stop stop-opacity="1" stop-color="rgb(46.572876%, 70.092773%, 22.029114%)" offset="0.109375"/><stop stop-opacity="1" stop-color="rgb(46.334839%, 70.056152%, 22.412109%)" offset="0.117187"/><stop stop-opacity="1" stop-color="rgb(46.095276%, 70.019531%, 22.795105%)" offset="0.125"/><stop stop-opacity="1" stop-color="rgb(45.857239%, 69.981384%, 23.178101%)" offset="0.132812"/><stop stop-opacity="1" stop-color="rgb(45.617676%, 69.944763%, 23.561096%)" offset="0.140625"/><stop stop-opacity="1" stop-color="rgb(45.379639%, 69.908142%, 23.942566%)" offset="0.148438"/><stop stop-opacity="1" stop-color="rgb(45.140076%, 69.871521%, 24.325562%)" offset="0.15625"/><stop stop-opacity="1" stop-color="rgb(44.902039%, 69.8349%, 24.708557%)" offset="0.159315"/><stop stop-opacity="1" stop-color="rgb(44.78302%, 69.816589%, 24.900818%)" offset="0.164062"/><stop stop-opacity="1" stop-color="rgb(44.662476%, 69.798279%, 25.091553%)" offset="0.171875"/><stop stop-opacity="1" stop-color="rgb(44.422913%, 69.761658%, 25.474548%)" offset="0.179688"/><stop stop-opacity="1" stop-color="rgb(44.184875%, 69.725037%, 25.857544%)" offset="0.1875"/><stop stop-opacity="1" stop-color="rgb(43.945312%, 69.68689%, 26.24054%)" offset="0.195312"/><stop stop-opacity="1" stop-color="rgb(43.707275%, 69.650269%, 26.623535%)" offset="0.203125"/><stop stop-opacity="1" stop-color="rgb(43.467712%, 69.613647%, 27.006531%)" offset="0.210937"/><stop stop-opacity="1" stop-color="rgb(43.229675%, 69.577026%, 27.389526%)" offset="0.21875"/><stop stop-opacity="1" stop-color="rgb(42.990112%, 69.540405%, 27.772522%)" offset="0.226563"/><stop stop-opacity="1" stop-color="rgb(42.750549%, 69.503784%, 28.155518%)" offset="0.234375"/><stop stop-opacity="1" stop-color="rgb(42.512512%, 69.467163%, 28.538513%)" offset="0.242188"/><stop stop-opacity="1" stop-color="rgb(42.272949%, 69.430542%, 28.921509%)" offset="0.25"/><stop stop-opacity="1" stop-color="rgb(42.034912%, 69.393921%, 29.304504%)" offset="0.257812"/><stop stop-opacity="1" stop-color="rgb(41.795349%, 69.355774%, 29.6875%)" offset="0.265625"/><stop stop-opacity="1" stop-color="rgb(41.557312%, 69.319153%, 30.070496%)" offset="0.273438"/><stop stop-opacity="1" stop-color="rgb(41.317749%, 69.282532%, 30.453491%)" offset="0.28125"/><stop stop-opacity="1" stop-color="rgb(41.078186%, 69.245911%, 30.836487%)" offset="0.289063"/><stop stop-opacity="1" stop-color="rgb(40.840149%, 69.20929%, 31.219482%)" offset="0.296875"/><stop stop-opacity="1" stop-color="rgb(40.600586%, 69.172668%, 31.602478%)" offset="0.304688"/><stop stop-opacity="1" stop-color="rgb(40.362549%, 69.136047%, 31.985474%)" offset="0.3125"/><stop stop-opacity="1" stop-color="rgb(40.122986%, 69.099426%, 32.368469%)" offset="0.320313"/><stop stop-opacity="1" stop-color="rgb(39.884949%, 69.062805%, 32.751465%)" offset="0.328125"/><stop stop-opacity="1" stop-color="rgb(39.645386%, 69.024658%, 33.13446%)" offset="0.335938"/><stop stop-opacity="1" stop-color="rgb(39.405823%, 68.988037%, 33.517456%)" offset="0.34375"/><stop stop-opacity="1" stop-color="rgb(39.167786%, 68.951416%, 33.900452%)" offset="0.351562"/><stop stop-opacity="1" stop-color="rgb(38.928223%, 68.914795%, 34.283447%)" offset="0.359375"/><stop stop-opacity="1" stop-color="rgb(38.690186%, 68.878174%, 34.666443%)" offset="0.367188"/><stop stop-opacity="1" stop-color="rgb(38.450623%, 68.841553%, 35.049438%)" offset="0.375"/><stop stop-opacity="1" stop-color="rgb(38.212585%, 68.804932%, 35.432434%)" offset="0.382813"/><stop stop-opacity="1" stop-color="rgb(37.973022%, 68.768311%, 35.81543%)" offset="0.390625"/><stop stop-opacity="1" stop-color="rgb(37.733459%, 68.730164%, 36.198425%)" offset="0.398438"/><stop stop-opacity="1" stop-color="rgb(37.495422%, 68.693542%, 36.581421%)" offset="0.40625"/><stop stop-opacity="1" stop-color="rgb(37.255859%, 68.656921%, 36.964417%)" offset="0.414063"/><stop stop-opacity="1" stop-color="rgb(37.017822%, 68.6203%, 37.347412%)" offset="0.421875"/><stop stop-opacity="1" stop-color="rgb(36.778259%, 68.583679%, 37.730408%)" offset="0.429688"/><stop stop-opacity="1" stop-color="rgb(36.540222%, 68.547058%, 38.113403%)" offset="0.4375"/><stop stop-opacity="1" stop-color="rgb(36.300659%, 68.510437%, 38.496399%)" offset="0.445313"/><stop stop-opacity="1" stop-color="rgb(36.061096%, 68.473816%, 38.879395%)" offset="0.453125"/><stop stop-opacity="1" stop-color="rgb(35.823059%, 68.437195%, 39.26239%)" offset="0.460938"/><stop stop-opacity="1" stop-color="rgb(35.583496%, 68.399048%, 39.645386%)" offset="0.46875"/><stop stop-opacity="1" stop-color="rgb(35.345459%, 68.362427%, 40.028381%)" offset="0.476562"/><stop stop-opacity="1" stop-color="rgb(35.105896%, 68.325806%, 40.411377%)" offset="0.484375"/><stop stop-opacity="1" stop-color="rgb(34.867859%, 68.289185%, 40.794373%)" offset="0.492188"/><stop stop-opacity="1" stop-color="rgb(34.628296%, 68.252563%, 41.177368%)" offset="0.5"/><stop stop-opacity="1" stop-color="rgb(34.388733%, 68.215942%, 41.560364%)" offset="0.507812"/><stop stop-opacity="1" stop-color="rgb(34.150696%, 68.179321%, 41.943359%)" offset="0.515625"/><stop stop-opacity="1" stop-color="rgb(33.911133%, 68.1427%, 42.326355%)" offset="0.523438"/><stop stop-opacity="1" stop-color="rgb(33.673096%, 68.106079%, 42.709351%)" offset="0.53125"/><stop stop-opacity="1" stop-color="rgb(33.433533%, 68.067932%, 43.092346%)" offset="0.539062"/><stop stop-opacity="1" stop-color="rgb(33.195496%, 68.031311%, 43.475342%)" offset="0.546875"/><stop stop-opacity="1" stop-color="rgb(32.955933%, 67.99469%, 43.858337%)" offset="0.554688"/><stop stop-opacity="1" stop-color="rgb(32.71637%, 67.958069%, 44.241333%)" offset="0.5625"/><stop stop-opacity="1" stop-color="rgb(32.478333%, 67.921448%, 44.624329%)" offset="0.570312"/><stop stop-opacity="1" stop-color="rgb(32.23877%, 67.884827%, 45.007324%)" offset="0.578125"/><stop stop-opacity="1" stop-color="rgb(32.000732%, 67.848206%, 45.39032%)" offset="0.585938"/><stop stop-opacity="1" stop-color="rgb(31.761169%, 67.811584%, 45.77179%)" offset="0.59375"/><stop stop-opacity="1" stop-color="rgb(31.523132%, 67.773438%, 46.154785%)" offset="0.601562"/><stop stop-opacity="1" stop-color="rgb(31.283569%, 67.736816%, 46.537781%)" offset="0.609375"/><stop stop-opacity="1" stop-color="rgb(31.044006%, 67.700195%, 46.920776%)" offset="0.617188"/><stop stop-opacity="1" stop-color="rgb(30.805969%, 67.663574%, 47.303772%)" offset="0.625"/><stop stop-opacity="1" stop-color="rgb(30.566406%, 67.626953%, 47.686768%)" offset="0.632812"/><stop stop-opacity="1" stop-color="rgb(30.328369%, 67.590332%, 48.069763%)" offset="0.640625"/><stop stop-opacity="1" stop-color="rgb(30.088806%, 67.553711%, 48.452759%)" offset="0.648438"/><stop stop-opacity="1" stop-color="rgb(29.850769%, 67.51709%, 48.835754%)" offset="0.65625"/><stop stop-opacity="1" stop-color="rgb(29.611206%, 67.480469%, 49.21875%)" offset="0.664063"/><stop stop-opacity="1" stop-color="rgb(29.371643%, 67.442322%, 49.601746%)" offset="0.671875"/><stop stop-opacity="1" stop-color="rgb(29.133606%, 67.405701%, 49.984741%)" offset="0.679688"/><stop stop-opacity="1" stop-color="rgb(28.894043%, 67.36908%, 50.367737%)" offset="0.6875"/><stop stop-opacity="1" stop-color="rgb(28.656006%, 67.332458%, 50.750732%)" offset="0.695313"/><stop stop-opacity="1" stop-color="rgb(28.416443%, 67.295837%, 51.133728%)" offset="0.703125"/><stop stop-opacity="1" stop-color="rgb(28.178406%, 67.259216%, 51.516724%)" offset="0.710938"/><stop stop-opacity="1" stop-color="rgb(27.938843%, 67.222595%, 51.899719%)" offset="0.71875"/><stop stop-opacity="1" stop-color="rgb(27.69928%, 67.185974%, 52.282715%)" offset="0.726562"/><stop stop-opacity="1" stop-color="rgb(27.461243%, 67.149353%, 52.66571%)" offset="0.734375"/><stop stop-opacity="1" stop-color="rgb(27.22168%, 67.111206%, 53.048706%)" offset="0.742187"/><stop stop-opacity="1" stop-color="rgb(26.983643%, 67.074585%, 53.431702%)" offset="0.75"/><stop stop-opacity="1" stop-color="rgb(26.74408%, 67.037964%, 53.814697%)" offset="0.757812"/><stop stop-opacity="1" stop-color="rgb(26.506042%, 67.001343%, 54.197693%)" offset="0.765625"/><stop stop-opacity="1" stop-color="rgb(26.266479%, 66.964722%, 54.580688%)" offset="0.773437"/><stop stop-opacity="1" stop-color="rgb(26.028442%, 66.928101%, 54.963684%)" offset="0.78125"/><stop stop-opacity="1" stop-color="rgb(25.788879%, 66.891479%, 55.34668%)" offset="0.789062"/><stop stop-opacity="1" stop-color="rgb(25.549316%, 66.854858%, 55.729675%)" offset="0.796875"/><stop stop-opacity="1" stop-color="rgb(25.311279%, 66.818237%, 56.112671%)" offset="0.804687"/><stop stop-opacity="1" stop-color="rgb(25.071716%, 66.78009%, 56.495667%)" offset="0.8125"/><stop stop-opacity="1" stop-color="rgb(24.833679%, 66.743469%, 56.878662%)" offset="0.820312"/><stop stop-opacity="1" stop-color="rgb(24.594116%, 66.706848%, 57.261658%)" offset="0.828125"/><stop stop-opacity="1" stop-color="rgb(24.356079%, 66.670227%, 57.644653%)" offset="0.835937"/><stop stop-opacity="1" stop-color="rgb(24.116516%, 66.633606%, 58.027649%)" offset="0.840685"/><stop stop-opacity="1" stop-color="rgb(23.997498%, 66.615295%, 58.21991%)" offset="0.84375"/><stop stop-opacity="1" stop-color="rgb(23.876953%, 66.596985%, 58.410645%)" offset="0.851562"/><stop stop-opacity="1" stop-color="rgb(23.638916%, 66.560364%, 58.79364%)" offset="0.859375"/><stop stop-opacity="1" stop-color="rgb(23.399353%, 66.523743%, 59.176636%)" offset="0.867188"/><stop stop-opacity="1" stop-color="rgb(23.161316%, 66.485596%, 59.559631%)" offset="0.875"/><stop stop-opacity="1" stop-color="rgb(22.921753%, 66.448975%, 59.942627%)" offset="0.882812"/><stop stop-opacity="1" stop-color="rgb(22.683716%, 66.412354%, 60.325623%)" offset="0.890625"/><stop stop-opacity="1" stop-color="rgb(22.444153%, 66.375732%, 60.708618%)" offset="0.898438"/><stop stop-opacity="1" stop-color="rgb(22.20459%, 66.339111%, 61.091614%)" offset="0.90625"/><stop stop-opacity="1" stop-color="rgb(21.966553%, 66.30249%, 61.474609%)" offset="0.914063"/><stop stop-opacity="1" stop-color="rgb(21.72699%, 66.265869%, 61.857605%)" offset="0.921875"/><stop stop-opacity="1" stop-color="rgb(21.488953%, 66.229248%, 62.240601%)" offset="0.929688"/><stop stop-opacity="1" stop-color="rgb(21.24939%, 66.192627%, 62.623596%)" offset="0.9375"/><stop stop-opacity="1" stop-color="rgb(21.011353%, 66.15448%, 63.006592%)" offset="0.945313"/><stop stop-opacity="1" stop-color="rgb(20.77179%, 66.117859%, 63.389587%)" offset="0.953125"/><stop stop-opacity="1" stop-color="rgb(20.532227%, 66.081238%, 63.772583%)" offset="0.960938"/><stop stop-opacity="1" stop-color="rgb(20.294189%, 66.044617%, 64.155579%)" offset="0.96875"/><stop stop-opacity="1" stop-color="rgb(20.054626%, 66.007996%, 64.538574%)" offset="0.976563"/><stop stop-opacity="1" stop-color="rgb(19.816589%, 65.971375%, 64.92157%)" offset="0.984375"/><stop stop-opacity="1" stop-color="rgb(19.577026%, 65.934753%, 65.304565%)" offset="0.992188"/><stop stop-opacity="1" stop-color="rgb(19.338989%, 65.898132%, 65.687561%)" offset="1"/></linearGradient><clipPath id="05693a4600"><path d="M 211.152344 62.488281 L 218.515625 62.488281 L 218.515625 69.855469 L 211.152344 69.855469 Z M 211.152344 62.488281 " clip-rule="nonzero"/></clipPath><clipPath id="3b516b4521"><path d="M 214.835938 62.488281 C 212.800781 62.488281 211.152344 64.136719 211.152344 66.171875 C 211.152344 68.207031 212.800781 69.855469 214.835938 69.855469 C 216.867188 69.855469 218.515625 68.207031 218.515625 66.171875 C 218.515625 64.136719 216.867188 62.488281 214.835938 62.488281 Z M 214.835938 62.488281 " clip-rule="nonzero"/></clipPath><clipPath id="e4d4c0729f"><path d="M 0.152344 0.488281 L 7.515625 0.488281 L 7.515625 7.855469 L 0.152344 7.855469 Z M 0.152344 0.488281 " clip-rule="nonzero"/></clipPath><clipPath id="0f79d36725"><path d="M 3.835938 0.488281 C 1.800781 0.488281 0.152344 2.136719 0.152344 4.171875 C 0.152344 6.207031 1.800781 7.855469 3.835938 7.855469 C 5.867188 7.855469 7.515625 6.207031 7.515625 4.171875 C 7.515625 2.136719 5.867188 0.488281 3.835938 0.488281 Z M 3.835938 0.488281 " clip-rule="nonzero"/></clipPath><clipPath id="260377f72d"><rect x="0" width="8" y="0" height="8"/></clipPath></defs><path fill="#ffffff" d="M 189.824219 72.039062 L 201.179688 72.039062 L 201.179688 8.792969 L 189.824219 8.792969 Z M 189.824219 72.039062 " fill-opacity="1" fill-rule="nonzero"/><path fill="#ffffff" d="M 209.515625 72.039062 L 252.886719 72.039062 L 252.886719 62.089844 L 220.871094 62.089844 L 220.871094 44.695312 L 247.300781 44.695312 L 247.300781 34.835938 L 220.871094 34.835938 L 220.871094 18.746094 L 251.957031 18.746094 L 251.957031 8.792969 L 209.515625 8.792969 Z M 209.515625 72.039062 " fill-opacity="1" fill-rule="nonzero"/><path fill="#ffffff" d="M 136.628906 72.039062 L 163.527344 72.039062 C 177.953125 72.039062 184.464844 66.554688 184.464844 54.371094 C 184.464844 46.09375 181.394531 41.164062 173.949219 38.929688 L 173.949219 38.742188 C 179.90625 36.605469 182.417969 32.234375 182.417969 25.257812 C 182.417969 13.910156 175.90625 8.796875 161.570312 8.796875 L 136.628906 8.796875 Z M 147.984375 34.929688 L 147.984375 18.652344 L 160.550781 18.652344 C 168.273438 18.652344 171.160156 20.792969 171.160156 26.746094 C 171.160156 32.792969 168.273438 34.929688 160.175781 34.929688 Z M 147.984375 62.179688 L 147.984375 44.789062 L 160.550781 44.789062 C 169.855469 44.789062 173.113281 47.113281 173.113281 53.53125 C 173.113281 59.761719 170.042969 62.179688 161.664062 62.179688 Z M 147.984375 62.179688 " fill-opacity="1" fill-rule="nonzero"/><path fill="#ffffff" d="M 62.496094 72.039062 L 73.289062 72.039062 L 73.289062 21.816406 L 91.160156 72.039062 L 99.070312 72.039062 L 116.9375 21.816406 L 116.9375 72.039062 L 128.292969 72.039062 L 128.292969 8.792969 L 111.449219 8.792969 L 95.347656 54.371094 L 79.246094 8.792969 L 62.496094 8.792969 Z M 62.496094 72.039062 " fill-opacity="1" fill-rule="nonzero"/><g clip-path="url(#a60e1ca77f)"><path fill="#ffffff" d="M 1.296875 72.039062 L 12.835938 72.039062 L 17.769531 57.71875 L 40.199219 57.71875 L 45.039062 72.039062 L 57.136719 72.039062 L 34.988281 8.796875 L 23.351562 8.796875 Z M 20.839844 47.953125 L 29.03125 22 L 37.128906 47.953125 Z M 20.839844 47.953125 " fill-opacity="1" fill-rule="nonzero"/></g><path fill="#ffffff" d="M 261.222656 72.039062 L 272.019531 72.039062 L 272.019531 25.257812 L 298.730469 72.039062 L 309.617188 72.039062 L 309.617188 8.792969 L 298.824219 8.792969 L 298.824219 52.695312 L 273.789062 8.792969 L 261.222656 8.792969 Z M 261.222656 72.039062 " fill-opacity="1" fill-rule="nonzero"/><path fill="#ffffff" d="M 332.75 72.039062 L 344.105469 72.039062 L 344.105469 18.933594 L 361.882812 18.933594 L 361.882812 8.792969 L 314.976562 8.792969 L 314.976562 18.933594 L 332.75 18.933594 Z M 332.75 72.039062 " fill-opacity="1" fill-rule="nonzero"/><path fill="#ffffff" d="M 352.445312 72.039062 L 363.984375 72.039062 L 368.917969 57.71875 L 391.34375 57.71875 L 396.183594 72.039062 L 408.28125 72.039062 L 386.132812 8.796875 L 374.5 8.796875 L 352.441406 72.039062 Z M 371.988281 47.953125 L 380.179688 22 L 388.273438 47.953125 Z M 371.988281 47.953125 " fill-opacity="1" fill-rule="nonzero"/><path fill="#ffffff" d="M 413.640625 72.039062 L 453.472656 72.039062 L 453.472656 61.902344 L 424.996094 61.902344 L 424.996094 8.792969 L 413.640625 8.792969 Z M 413.640625 72.039062 " fill-opacity="1" fill-rule="nonzero"/><path fill="#ffffff" d="M 63.753906 125.542969 C 61.875 125.542969 60.136719 125.230469 58.539062 124.597656 C 56.945312 123.96875 55.5625 123.082031 54.398438 121.9375 C 53.230469 120.796875 52.320312 119.453125 51.664062 117.90625 C 51.011719 116.359375 50.683594 114.671875 50.683594 112.835938 C 50.683594 111.003906 51.011719 109.316406 51.664062 107.769531 C 52.320312 106.222656 53.234375 104.878906 54.414062 103.734375 C 55.59375 102.59375 56.980469 101.707031 58.578125 101.078125 C 60.171875 100.445312 61.910156 100.132812 63.789062 100.132812 C 65.601562 100.132812 67.300781 100.433594 68.898438 101.042969 C 70.492188 101.648438 71.839844 102.558594 72.933594 103.773438 L 71.253906 105.449219 C 70.230469 104.402344 69.101562 103.648438 67.863281 103.183594 C 66.625 102.71875 65.292969 102.488281 63.863281 102.488281 C 62.363281 102.488281 60.96875 102.742188 59.683594 103.253906 C 58.398438 103.765625 57.277344 104.492188 56.328125 105.433594 C 55.375 106.371094 54.628906 107.46875 54.09375 108.714844 C 53.558594 109.964844 53.289062 111.339844 53.289062 112.839844 C 53.289062 114.335938 53.558594 115.710938 54.09375 116.960938 C 54.628906 118.210938 55.375 119.304688 56.328125 120.246094 C 57.28125 121.183594 58.398438 121.910156 59.683594 122.421875 C 60.96875 122.933594 62.363281 123.1875 63.863281 123.1875 C 65.289062 123.1875 66.625 122.953125 67.863281 122.476562 C 69.101562 122 70.230469 121.238281 71.253906 120.191406 L 72.933594 121.867188 C 71.839844 123.082031 70.492188 123.996094 68.898438 124.617188 C 67.300781 125.234375 65.589844 125.546875 63.753906 125.546875 Z M 63.753906 125.542969 " fill-opacity="1" fill-rule="nonzero"/><path fill="#ffffff" d="M 84.863281 125.507812 C 83.03125 125.484375 81.398438 125.066406 79.96875 124.257812 C 78.542969 123.449219 77.417969 122.324219 76.59375 120.886719 C 75.773438 119.445312 75.363281 117.796875 75.363281 115.941406 C 75.339844 114.0625 75.75 112.414062 76.59375 110.996094 C 77.441406 109.582031 78.570312 108.464844 79.988281 107.644531 C 81.40625 106.820312 83.03125 106.410156 84.863281 106.410156 C 86.71875 106.410156 88.363281 106.820312 89.792969 107.644531 C 91.21875 108.464844 92.347656 109.589844 93.167969 111.015625 C 93.988281 112.445312 94.398438 114.085938 94.398438 115.941406 C 94.421875 117.796875 94.023438 119.445312 93.203125 120.886719 C 92.382812 122.324219 91.246094 123.449219 89.792969 124.257812 C 88.339844 125.066406 86.695312 125.484375 84.863281 125.507812 Z M 84.863281 123.257812 C 86.21875 123.257812 87.421875 122.957031 88.472656 122.347656 C 89.519531 121.742188 90.347656 120.886719 90.953125 119.777344 C 91.558594 118.671875 91.875 117.394531 91.898438 115.941406 C 91.875 114.46875 91.558594 113.183594 90.953125 112.085938 C 90.347656 110.992188 89.519531 110.140625 88.472656 109.535156 C 87.421875 108.929688 86.222656 108.625 84.863281 108.625 C 83.554688 108.625 82.375 108.929688 81.328125 109.535156 C 80.28125 110.140625 79.445312 110.992188 78.828125 112.085938 C 78.207031 113.183594 77.886719 114.46875 77.863281 115.941406 C 77.886719 117.394531 78.207031 118.671875 78.828125 119.777344 C 79.445312 120.886719 80.273438 121.75 81.308594 122.367188 C 82.34375 122.984375 83.53125 123.285156 84.863281 123.257812 Z M 84.863281 123.257812 " fill-opacity="1" fill-rule="nonzero"/><path fill="#ffffff" d="M 109.1875 106.410156 C 110.710938 106.410156 112.050781 106.703125 113.203125 107.285156 C 114.359375 107.867188 115.265625 108.753906 115.917969 109.945312 C 116.574219 111.136719 116.902344 112.632812 116.902344 114.441406 L 116.902344 125.328125 L 114.363281 125.328125 L 114.363281 114.691406 C 114.363281 112.71875 113.871094 111.222656 112.882812 110.210938 C 111.894531 109.199219 110.507812 108.695312 108.71875 108.695312 C 107.386719 108.695312 106.226562 108.964844 105.238281 109.5 C 104.25 110.035156 103.488281 110.808594 102.953125 111.816406 C 102.417969 112.828125 102.148438 114.046875 102.148438 115.476562 L 102.148438 125.328125 L 99.613281 125.328125 L 99.613281 106.589844 L 102.042969 106.589844 L 102.042969 111.730469 L 101.648438 110.765625 C 102.242188 109.410156 103.195312 108.34375 104.507812 107.570312 C 105.816406 106.796875 107.375 106.410156 109.183594 106.410156 Z M 109.1875 106.410156 " fill-opacity="1" fill-rule="nonzero"/><path fill="#ffffff" d="M 133.332031 106.410156 C 134.855469 106.410156 136.195312 106.703125 137.347656 107.285156 C 138.503906 107.867188 139.40625 108.753906 140.0625 109.945312 C 140.71875 111.136719 141.042969 112.632812 141.042969 114.441406 L 141.042969 125.328125 L 138.507812 125.328125 L 138.507812 114.691406 C 138.507812 112.71875 138.015625 111.222656 137.027344 110.210938 C 136.039062 109.199219 134.648438 108.695312 132.863281 108.695312 C 131.53125 108.695312 130.371094 108.964844 129.382812 109.5 C 128.394531 110.035156 127.632812 110.808594 127.097656 111.816406 C 126.558594 112.828125 126.292969 114.046875 126.292969 115.476562 L 126.292969 125.328125 L 123.757812 125.328125 L 123.757812 98.84375 L 126.292969 98.84375 L 126.292969 111.730469 L 125.792969 110.765625 C 126.386719 109.410156 127.339844 108.34375 128.648438 107.570312 C 129.960938 106.796875 131.519531 106.410156 133.328125 106.410156 Z M 133.332031 106.410156 " fill-opacity="1" fill-rule="nonzero"/><path fill="#ffffff" d="M 155.867188 125.507812 C 153.914062 125.507812 152.199219 125.097656 150.722656 124.277344 C 149.246094 123.457031 148.09375 122.324219 147.257812 120.886719 C 146.425781 119.445312 146.007812 117.796875 146.007812 115.941406 C 146.007812 114.085938 146.40625 112.445312 147.203125 111.015625 C 148.003906 109.589844 149.097656 108.464844 150.492188 107.644531 C 151.882812 106.820312 153.449219 106.410156 155.1875 106.410156 C 156.949219 106.410156 158.515625 106.808594 159.882812 107.605469 C 161.253906 108.40625 162.332031 109.523438 163.117188 110.960938 C 163.902344 112.402344 164.292969 114.0625 164.292969 115.941406 C 164.292969 116.058594 164.289062 116.1875 164.277344 116.316406 C 164.265625 116.449219 164.257812 116.585938 164.257812 116.726562 L 147.9375 116.726562 L 147.9375 114.835938 L 162.902344 114.835938 L 161.902344 115.585938 C 161.902344 114.226562 161.609375 113.019531 161.027344 111.960938 C 160.441406 110.902344 159.652344 110.074219 158.652344 109.480469 C 157.648438 108.886719 156.496094 108.589844 155.1875 108.589844 C 153.902344 108.589844 152.746094 108.886719 151.722656 109.480469 C 150.699219 110.074219 149.902344 110.910156 149.328125 111.980469 C 148.757812 113.050781 148.472656 114.277344 148.472656 115.65625 L 148.472656 116.050781 C 148.472656 117.476562 148.789062 118.730469 149.417969 119.816406 C 150.050781 120.898438 150.929688 121.742188 152.0625 122.351562 C 153.191406 122.957031 154.484375 123.261719 155.9375 123.261719 C 157.078125 123.261719 158.144531 123.058594 159.132812 122.652344 C 160.121094 122.25 160.972656 121.628906 161.6875 120.796875 L 163.117188 122.4375 C 162.28125 123.4375 161.238281 124.199219 159.992188 124.722656 C 158.738281 125.246094 157.363281 125.507812 155.867188 125.507812 Z M 155.867188 125.507812 " fill-opacity="1" fill-rule="nonzero"/><path fill="#ffffff" d="M 177.261719 125.507812 C 175.402344 125.507812 173.742188 125.097656 172.277344 124.277344 C 170.8125 123.457031 169.664062 122.324219 168.832031 120.886719 C 168 119.445312 167.582031 117.796875 167.582031 115.941406 C 167.582031 114.0625 168 112.410156 168.832031 110.980469 C 169.664062 109.550781 170.8125 108.433594 172.277344 107.625 C 173.742188 106.816406 175.402344 106.410156 177.261719 106.410156 C 178.855469 106.410156 180.296875 106.71875 181.582031 107.339844 C 182.867188 107.957031 183.878906 108.886719 184.617188 110.125 L 182.726562 111.410156 C 182.082031 110.457031 181.285156 109.753906 180.332031 109.300781 C 179.378906 108.851562 178.34375 108.625 177.222656 108.625 C 175.890625 108.625 174.6875 108.929688 173.617188 109.535156 C 172.546875 110.140625 171.699219 110.992188 171.082031 112.085938 C 170.460938 113.183594 170.152344 114.464844 170.152344 115.941406 C 170.152344 117.417969 170.460938 118.703125 171.082031 119.796875 C 171.699219 120.890625 172.546875 121.742188 173.617188 122.347656 C 174.6875 122.957031 175.890625 123.257812 177.222656 123.257812 C 178.34375 123.257812 179.378906 123.035156 180.332031 122.582031 C 181.285156 122.128906 182.082031 121.4375 182.726562 120.511719 L 184.617188 121.796875 C 183.878906 123.007812 182.867188 123.929688 181.582031 124.5625 C 180.296875 125.195312 178.855469 125.507812 177.261719 125.507812 Z M 177.261719 125.507812 " fill-opacity="1" fill-rule="nonzero"/><path fill="#ffffff" d="M 189.332031 125.328125 L 189.296875 106.589844 L 191.832031 106.589844 L 191.832031 125.328125 Z M 190.582031 102.449219 C 190.058594 102.449219 189.617188 102.269531 189.261719 101.914062 C 188.902344 101.558594 188.726562 101.128906 188.726562 100.628906 C 188.726562 100.128906 188.90625 99.707031 189.261719 99.363281 C 189.617188 99.015625 190.058594 98.84375 190.582031 98.84375 C 191.105469 98.84375 191.546875 99.011719 191.90625 99.34375 C 192.261719 99.679688 192.441406 100.09375 192.441406 100.59375 C 192.441406 101.117188 192.269531 101.558594 191.921875 101.914062 C 191.578125 102.273438 191.132812 102.449219 190.585938 102.449219 Z M 190.582031 102.449219 " fill-opacity="1" fill-rule="nonzero"/><path fill="#ffffff" d="M 222.335938 106.410156 C 223.859375 106.410156 225.1875 106.703125 226.316406 107.285156 C 227.449219 107.867188 228.328125 108.753906 228.960938 109.945312 C 229.589844 111.136719 229.90625 112.632812 229.90625 114.441406 L 229.90625 125.328125 L 227.371094 125.328125 L 227.371094 114.691406 C 227.371094 112.71875 226.898438 111.222656 225.960938 110.210938 C 225.019531 109.199219 223.691406 108.695312 221.976562 108.695312 C 220.691406 108.695312 219.578125 108.964844 218.636719 109.5 C 217.695312 110.035156 216.96875 110.808594 216.457031 111.816406 C 215.945312 112.828125 215.691406 114.046875 215.691406 115.476562 L 215.691406 125.328125 L 213.15625 125.328125 L 213.15625 114.691406 C 213.15625 112.71875 212.679688 111.222656 211.726562 110.210938 C 210.773438 109.199219 209.441406 108.695312 207.726562 108.695312 C 206.464844 108.695312 205.355469 108.964844 204.402344 109.5 C 203.449219 110.035156 202.71875 110.808594 202.207031 111.816406 C 201.695312 112.828125 201.4375 114.046875 201.4375 115.476562 L 201.4375 125.328125 L 198.902344 125.328125 L 198.902344 106.589844 L 201.332031 106.589844 L 201.332031 111.65625 L 200.9375 110.765625 C 201.511719 109.410156 202.433594 108.34375 203.707031 107.570312 C 204.980469 106.796875 206.488281 106.410156 208.226562 106.410156 C 210.058594 106.410156 211.617188 106.867188 212.902344 107.785156 C 214.1875 108.699219 215.023438 110.074219 215.402344 111.90625 L 214.402344 111.515625 C 214.949219 109.992188 215.921875 108.761719 217.3125 107.820312 C 218.707031 106.882812 220.378906 106.410156 222.332031 106.410156 Z M 222.335938 106.410156 " fill-opacity="1" fill-rule="nonzero"/><path fill="#ffffff" d="M 244.765625 125.507812 C 242.8125 125.507812 241.097656 125.097656 239.621094 124.277344 C 238.144531 123.457031 236.988281 122.324219 236.15625 120.886719 C 235.320312 119.445312 234.90625 117.796875 234.90625 115.941406 C 234.90625 114.085938 235.304688 112.445312 236.101562 111.015625 C 236.898438 109.589844 237.996094 108.464844 239.386719 107.644531 C 240.78125 106.820312 242.347656 106.410156 244.085938 106.410156 C 245.847656 106.410156 247.410156 106.808594 248.78125 107.605469 C 250.152344 108.40625 251.226562 109.523438 252.011719 110.960938 C 252.800781 112.402344 253.191406 114.0625 253.191406 115.941406 C 253.191406 116.058594 253.1875 116.1875 253.171875 116.316406 C 253.160156 116.449219 253.15625 116.585938 253.15625 116.726562 L 236.832031 116.726562 L 236.832031 114.835938 L 251.796875 114.835938 L 250.796875 115.585938 C 250.796875 114.226562 250.507812 113.019531 249.921875 111.960938 C 249.339844 110.902344 248.546875 110.074219 247.546875 109.480469 C 246.546875 108.886719 245.394531 108.589844 244.082031 108.589844 C 242.796875 108.589844 241.640625 108.886719 240.621094 109.480469 C 239.59375 110.074219 238.796875 110.910156 238.226562 111.980469 C 237.65625 113.050781 237.367188 114.277344 237.367188 115.65625 L 237.367188 116.050781 C 237.367188 117.476562 237.683594 118.730469 238.316406 119.816406 C 238.945312 120.898438 239.828125 121.742188 240.957031 122.351562 C 242.089844 122.957031 243.382812 123.261719 244.832031 123.261719 C 245.976562 123.261719 247.042969 123.058594 248.03125 122.652344 C 249.019531 122.25 249.871094 121.628906 250.585938 120.796875 L 252.011719 122.4375 C 251.179688 123.4375 250.136719 124.199219 248.886719 124.722656 C 247.636719 125.246094 246.261719 125.507812 244.761719 125.507812 Z M 244.765625 125.507812 " fill-opacity="1" fill-rule="nonzero"/><path fill="#ffffff" d="M 267.945312 106.410156 C 269.46875 106.410156 270.808594 106.703125 271.960938 107.285156 C 273.117188 107.867188 274.023438 108.753906 274.675781 109.945312 C 275.332031 111.136719 275.660156 112.632812 275.660156 114.441406 L 275.660156 125.328125 L 273.121094 125.328125 L 273.121094 114.691406 C 273.121094 112.71875 272.628906 111.222656 271.640625 110.210938 C 270.652344 109.199219 269.265625 108.695312 267.480469 108.695312 C 266.144531 108.695312 264.984375 108.964844 263.996094 109.5 C 263.007812 110.035156 262.246094 110.808594 261.710938 111.816406 C 261.175781 112.828125 260.90625 114.046875 260.90625 115.476562 L 260.90625 125.328125 L 258.371094 125.328125 L 258.371094 106.589844 L 260.800781 106.589844 L 260.800781 111.730469 L 260.40625 110.765625 C 261 109.410156 261.953125 108.34375 263.265625 107.570312 C 264.574219 106.796875 266.132812 106.410156 267.941406 106.410156 Z M 267.945312 106.410156 " fill-opacity="1" fill-rule="nonzero"/><path fill="#ffffff" d="M 288.445312 125.507812 C 286.683594 125.507812 285.324219 125.03125 284.375 124.082031 C 283.421875 123.128906 282.945312 121.785156 282.945312 120.046875 L 282.945312 102.449219 L 285.480469 102.449219 L 285.480469 119.90625 C 285.480469 121 285.761719 121.84375 286.320312 122.4375 C 286.878906 123.035156 287.683594 123.332031 288.730469 123.332031 C 289.851562 123.332031 290.777344 123.011719 291.515625 122.367188 L 292.410156 124.1875 C 291.910156 124.640625 291.308594 124.972656 290.605469 125.1875 C 289.90625 125.402344 289.183594 125.507812 288.445312 125.507812 Z M 279.585938 108.695312 L 279.585938 106.589844 L 291.195312 106.589844 L 291.195312 108.695312 Z M 279.585938 108.695312 " fill-opacity="1" fill-rule="nonzero"/><path fill="#ffffff" d="M 303.980469 125.507812 C 302.148438 125.484375 300.515625 125.066406 299.089844 124.257812 C 297.660156 123.449219 296.535156 122.324219 295.714844 120.886719 C 294.890625 119.445312 294.480469 117.796875 294.480469 115.941406 C 294.457031 114.0625 294.867188 112.414062 295.714844 110.996094 C 296.558594 109.582031 297.691406 108.464844 299.105469 107.644531 C 300.523438 106.820312 302.148438 106.410156 303.980469 106.410156 C 305.839844 106.410156 307.480469 106.820312 308.910156 107.644531 C 310.339844 108.464844 311.464844 109.589844 312.285156 111.015625 C 313.105469 112.445312 313.519531 114.085938 313.519531 115.941406 C 313.542969 117.796875 313.144531 119.445312 312.320312 120.886719 C 311.5 122.324219 310.363281 123.449219 308.910156 124.257812 C 307.457031 125.066406 305.816406 125.484375 303.980469 125.507812 Z M 303.980469 123.257812 C 305.339844 123.257812 306.542969 122.957031 307.589844 122.347656 C 308.636719 121.742188 309.464844 120.886719 310.070312 119.777344 C 310.679688 118.671875 310.992188 117.394531 311.019531 115.941406 C 310.992188 114.46875 310.679688 113.183594 310.070312 112.085938 C 309.464844 110.992188 308.636719 110.140625 307.589844 109.535156 C 306.542969 108.929688 305.339844 108.625 303.980469 108.625 C 302.671875 108.625 301.492188 108.929688 300.445312 109.535156 C 299.398438 110.140625 298.566406 110.992188 297.945312 112.085938 C 297.328125 113.183594 297.003906 114.46875 296.980469 115.941406 C 297.003906 117.394531 297.328125 118.671875 297.945312 119.777344 C 298.566406 120.886719 299.390625 121.75 300.429688 122.367188 C 301.464844 122.984375 302.648438 123.285156 303.980469 123.257812 Z M 303.980469 123.257812 " fill-opacity="1" fill-rule="nonzero"/><g clip-path="url(#edbda0d9ce)"><path fill="#ffffff" d="M 335.554688 125.507812 C 333.769531 125.507812 332.167969 125.101562 330.75 124.292969 C 329.332031 123.484375 328.222656 122.367188 327.410156 120.941406 C 326.601562 119.511719 326.195312 117.847656 326.195312 115.941406 C 326.195312 114.0625 326.601562 112.402344 327.410156 110.960938 C 328.222656 109.523438 329.332031 108.40625 330.75 107.609375 C 332.167969 106.808594 333.769531 106.414062 335.554688 106.414062 C 337.222656 106.414062 338.703125 106.78125 340 107.519531 C 341.300781 108.257812 342.328125 109.332031 343.089844 110.75 C 343.851562 112.164062 344.234375 113.894531 344.234375 115.941406 C 344.234375 117.988281 343.847656 119.71875 343.074219 121.136719 C 342.296875 122.550781 341.261719 123.636719 339.964844 124.382812 C 338.667969 125.132812 337.199219 125.507812 335.554688 125.507812 Z M 335.734375 123.257812 C 337.066406 123.257812 338.261719 122.957031 339.324219 122.347656 C 340.382812 121.742188 341.214844 120.886719 341.824219 119.777344 C 342.429688 118.671875 342.734375 117.394531 342.734375 115.941406 C 342.734375 114.492188 342.429688 113.21875 341.824219 112.125 C 341.214844 111.027344 340.382812 110.171875 339.324219 109.554688 C 338.261719 108.933594 337.066406 108.625 335.734375 108.625 C 334.421875 108.625 333.246094 108.933594 332.199219 109.554688 C 331.148438 110.171875 330.316406 111.027344 329.699219 112.125 C 329.078125 113.21875 328.769531 114.492188 328.769531 115.941406 C 328.769531 117.394531 329.078125 118.671875 329.699219 119.777344 C 330.316406 120.886719 331.148438 121.742188 332.199219 122.347656 C 333.246094 122.957031 334.421875 123.257812 335.734375 123.257812 Z M 342.699219 132.253906 L 342.699219 119.761719 L 343.054688 115.980469 L 342.804688 112.230469 L 342.804688 106.589844 L 345.234375 106.589844 L 345.234375 132.253906 Z M 342.699219 132.253906 " fill-opacity="1" fill-rule="nonzero"/></g><path fill="#ffffff" d="M 360.054688 125.507812 C 358.460938 125.507812 357.066406 125.210938 355.878906 124.617188 C 354.6875 124.019531 353.765625 123.128906 353.109375 121.9375 C 352.453125 120.75 352.125 119.261719 352.125 117.476562 L 352.125 106.589844 L 354.664062 106.589844 L 354.664062 117.191406 C 354.664062 119.191406 355.15625 120.695312 356.144531 121.707031 C 357.132812 122.71875 358.519531 123.222656 360.308594 123.222656 C 361.617188 123.222656 362.753906 122.957031 363.71875 122.421875 C 364.683594 121.886719 365.421875 121.105469 365.933594 120.082031 C 366.445312 119.058594 366.699219 117.832031 366.699219 116.40625 L 366.699219 106.589844 L 369.234375 106.589844 L 369.234375 125.328125 L 366.808594 125.328125 L 366.808594 120.191406 L 367.199219 121.117188 C 366.605469 122.496094 365.683594 123.574219 364.433594 124.347656 C 363.179688 125.121094 361.722656 125.507812 360.058594 125.507812 Z M 360.054688 125.507812 " fill-opacity="1" fill-rule="nonzero"/><path fill="#ffffff" d="M 384.269531 125.507812 C 382.320312 125.507812 380.605469 125.097656 379.128906 124.277344 C 377.652344 123.457031 376.496094 122.324219 375.664062 120.886719 C 374.828125 119.445312 374.414062 117.796875 374.414062 115.941406 C 374.414062 114.085938 374.8125 112.445312 375.609375 111.015625 C 376.40625 109.589844 377.5 108.464844 378.894531 107.644531 C 380.289062 106.820312 381.851562 106.410156 383.589844 106.410156 C 385.351562 106.410156 386.917969 106.808594 388.289062 107.605469 C 389.65625 108.40625 390.734375 109.523438 391.519531 110.960938 C 392.304688 112.402344 392.699219 114.0625 392.699219 115.941406 C 392.699219 116.058594 392.691406 116.1875 392.679688 116.316406 C 392.667969 116.449219 392.664062 116.585938 392.664062 116.726562 L 376.339844 116.726562 L 376.339844 114.835938 L 391.304688 114.835938 L 390.304688 115.585938 C 390.304688 114.226562 390.011719 113.019531 389.429688 111.960938 C 388.847656 110.902344 388.054688 110.074219 387.054688 109.480469 C 386.054688 108.886719 384.898438 108.589844 383.589844 108.589844 C 382.304688 108.589844 381.148438 108.886719 380.125 109.480469 C 379.101562 110.074219 378.304688 110.910156 377.734375 111.980469 C 377.160156 113.050781 376.875 114.277344 376.875 115.65625 L 376.875 116.050781 C 376.875 117.476562 377.191406 118.730469 377.824219 119.816406 C 378.453125 120.898438 379.335938 121.742188 380.464844 122.351562 C 381.597656 122.957031 382.886719 123.261719 384.339844 123.261719 C 385.484375 123.261719 386.546875 123.058594 387.535156 122.652344 C 388.523438 122.25 389.375 121.628906 390.089844 120.796875 L 391.519531 122.4375 C 390.683594 123.4375 389.644531 124.199219 388.394531 124.722656 C 387.144531 125.246094 385.769531 125.507812 384.269531 125.507812 Z M 384.269531 125.507812 " fill-opacity="1" fill-rule="nonzero"/><path fill="#ffffff" d="M 413.164062 125.507812 C 411.402344 125.507812 410.046875 125.03125 409.09375 124.082031 C 408.140625 123.128906 407.664062 121.785156 407.664062 120.046875 L 407.664062 102.449219 L 410.203125 102.449219 L 410.203125 119.90625 C 410.203125 121 410.480469 121.84375 411.042969 122.4375 C 411.601562 123.035156 412.402344 123.332031 413.453125 123.332031 C 414.570312 123.332031 415.5 123.011719 416.238281 122.367188 L 417.132812 124.1875 C 416.632812 124.640625 416.03125 124.972656 415.328125 125.1875 C 414.625 125.402344 413.90625 125.507812 413.167969 125.507812 Z M 404.308594 108.695312 L 404.308594 106.589844 L 415.914062 106.589844 L 415.914062 108.695312 Z M 404.308594 108.695312 " fill-opacity="1" fill-rule="nonzero"/><path fill="#ffffff" d="M 421.738281 125.328125 L 421.738281 106.589844 L 424.167969 106.589844 L 424.167969 111.695312 L 423.917969 110.800781 C 424.441406 109.375 425.320312 108.285156 426.558594 107.535156 C 427.796875 106.785156 429.332031 106.414062 431.167969 106.414062 L 431.167969 108.875 C 431.070312 108.875 430.976562 108.871094 430.878906 108.859375 C 430.785156 108.84375 430.691406 108.839844 430.59375 108.839844 C 428.617188 108.839844 427.070312 109.441406 425.953125 110.640625 C 424.832031 111.84375 424.273438 113.550781 424.273438 115.765625 L 424.273438 125.332031 L 421.738281 125.332031 Z M 421.738281 125.328125 " fill-opacity="1" fill-rule="nonzero"/><path fill="#ffffff" d="M 446.132812 125.328125 L 446.132812 121.1875 L 446.023438 120.511719 L 446.023438 113.585938 C 446.023438 111.992188 445.578125 110.765625 444.683594 109.910156 C 443.792969 109.050781 442.464844 108.625 440.703125 108.625 C 439.488281 108.625 438.332031 108.828125 437.238281 109.230469 C 436.144531 109.636719 435.214844 110.171875 434.453125 110.835938 L 433.308594 108.945312 C 434.261719 108.136719 435.402344 107.511719 436.738281 107.070312 C 438.070312 106.632812 439.476562 106.410156 440.953125 106.410156 C 443.378906 106.410156 445.253906 107.011719 446.578125 108.214844 C 447.898438 109.414062 448.558594 111.242188 448.558594 113.691406 L 448.558594 125.328125 L 446.128906 125.328125 Z M 439.667969 125.507812 C 438.261719 125.507812 437.042969 125.277344 436.003906 124.8125 C 434.96875 124.347656 434.179688 123.707031 433.628906 122.882812 C 433.082031 122.0625 432.808594 121.117188 432.808594 120.046875 C 432.808594 119.070312 433.039062 118.183594 433.503906 117.386719 C 433.96875 116.589844 434.730469 115.949219 435.789062 115.460938 C 436.851562 114.972656 438.273438 114.726562 440.058594 114.726562 L 446.523438 114.726562 L 446.523438 116.621094 L 440.128906 116.621094 C 438.320312 116.621094 437.0625 116.941406 436.363281 117.582031 C 435.660156 118.226562 435.308594 119.023438 435.308594 119.976562 C 435.308594 121.046875 435.722656 121.902344 436.558594 122.542969 C 437.390625 123.1875 438.558594 123.507812 440.058594 123.507812 C 441.488281 123.507812 442.71875 123.179688 443.753906 122.527344 C 444.789062 121.871094 445.546875 120.925781 446.023438 119.6875 L 446.59375 121.4375 C 446.117188 122.675781 445.292969 123.664062 444.113281 124.398438 C 442.933594 125.136719 441.453125 125.507812 439.667969 125.507812 Z M 439.667969 125.507812 " fill-opacity="1" fill-rule="nonzero"/><path fill="#ffffff" d="M 465.023438 106.410156 C 466.546875 106.410156 467.886719 106.703125 469.042969 107.285156 C 470.199219 107.867188 471.101562 108.753906 471.757812 109.945312 C 472.414062 111.136719 472.738281 112.632812 472.738281 114.441406 L 472.738281 125.328125 L 470.203125 125.328125 L 470.203125 114.691406 C 470.203125 112.71875 469.707031 111.222656 468.71875 110.210938 C 467.734375 109.199219 466.34375 108.695312 464.558594 108.695312 C 463.226562 108.695312 462.066406 108.964844 461.078125 109.5 C 460.089844 110.035156 459.328125 110.808594 458.789062 111.816406 C 458.253906 112.828125 457.988281 114.046875 457.988281 115.476562 L 457.988281 125.328125 L 455.453125 125.328125 L 455.453125 106.589844 L 457.878906 106.589844 L 457.878906 111.730469 L 457.488281 110.765625 C 458.082031 109.410156 459.035156 108.34375 460.34375 107.570312 C 461.652344 106.796875 463.214844 106.410156 465.023438 106.410156 Z M 465.023438 106.410156 " fill-opacity="1" fill-rule="nonzero"/><path fill="#ffffff" d="M 484.632812 125.507812 C 483.085938 125.507812 481.621094 125.289062 480.238281 124.847656 C 478.859375 124.40625 477.773438 123.855469 476.988281 123.1875 L 478.132812 121.1875 C 478.894531 121.761719 479.871094 122.253906 481.0625 122.671875 C 482.25 123.085938 483.503906 123.292969 484.8125 123.292969 C 486.597656 123.292969 487.882812 123.015625 488.667969 122.457031 C 489.453125 121.898438 489.847656 121.152344 489.847656 120.226562 C 489.847656 119.535156 489.628906 118.992188 489.1875 118.601562 C 488.746094 118.207031 488.167969 117.910156 487.453125 117.707031 C 486.738281 117.507812 485.941406 117.332031 485.0625 117.191406 C 484.179688 117.046875 483.304688 116.882812 482.4375 116.691406 C 481.566406 116.5 480.777344 116.222656 480.0625 115.851562 C 479.347656 115.484375 478.769531 114.976562 478.328125 114.335938 C 477.886719 113.691406 477.667969 112.835938 477.667969 111.765625 C 477.667969 110.742188 477.953125 109.824219 478.527344 109.015625 C 479.097656 108.207031 479.9375 107.570312 481.042969 107.109375 C 482.152344 106.644531 483.503906 106.414062 485.097656 106.414062 C 486.3125 106.414062 487.527344 106.574219 488.742188 106.894531 C 489.957031 107.214844 490.957031 107.636719 491.742188 108.160156 L 490.632812 110.195312 C 489.800781 109.625 488.90625 109.214844 487.957031 108.964844 C 487.003906 108.714844 486.050781 108.589844 485.097656 108.589844 C 483.40625 108.589844 482.164062 108.882812 481.367188 109.464844 C 480.566406 110.046875 480.167969 110.789062 480.167969 111.695312 C 480.167969 112.410156 480.390625 112.96875 480.828125 113.371094 C 481.269531 113.777344 481.855469 114.09375 482.578125 114.320312 C 483.304688 114.546875 484.101562 114.730469 484.972656 114.871094 C 485.84375 115.015625 486.710938 115.1875 487.582031 115.390625 C 488.449219 115.59375 489.246094 115.867188 489.972656 116.210938 C 490.699219 116.554688 491.285156 117.042969 491.722656 117.675781 C 492.164062 118.304688 492.386719 119.132812 492.386719 120.15625 C 492.386719 121.25 492.082031 122.195312 491.472656 122.992188 C 490.867188 123.789062 489.984375 124.410156 488.832031 124.847656 C 487.675781 125.289062 486.277344 125.507812 484.632812 125.507812 Z M 484.632812 125.507812 " fill-opacity="1" fill-rule="nonzero"/><path fill="#ffffff" d="M 497.457031 125.328125 L 497.457031 104.234375 C 497.457031 102.566406 497.945312 101.222656 498.921875 100.199219 C 499.894531 99.175781 501.300781 98.664062 503.132812 98.664062 C 503.847656 98.664062 504.539062 98.761719 505.207031 98.949219 C 505.875 99.140625 506.433594 99.4375 506.886719 99.84375 L 506.027344 101.734375 C 505.671875 101.425781 505.253906 101.191406 504.777344 101.039062 C 504.300781 100.882812 503.789062 100.808594 503.242188 100.808594 C 502.171875 100.808594 501.347656 101.105469 500.777344 101.699219 C 500.207031 102.292969 499.921875 103.175781 499.921875 104.339844 L 499.921875 107.195312 L 499.992188 108.375 L 499.992188 125.328125 Z M 494.097656 108.695312 L 494.097656 106.589844 L 505.707031 106.589844 L 505.707031 108.695312 Z M 494.097656 108.695312 " fill-opacity="1" fill-rule="nonzero"/><path fill="#ffffff" d="M 516.457031 125.507812 C 514.625 125.484375 512.992188 125.066406 511.5625 124.257812 C 510.136719 123.449219 509.007812 122.324219 508.1875 120.886719 C 507.367188 119.445312 506.957031 117.796875 506.957031 115.941406 C 506.933594 114.0625 507.34375 112.414062 508.1875 110.996094 C 509.035156 109.582031 510.164062 108.464844 511.582031 107.644531 C 513 106.820312 514.625 106.410156 516.457031 106.410156 C 518.3125 106.410156 519.957031 106.820312 521.386719 107.644531 C 522.8125 108.464844 523.941406 109.589844 524.761719 111.015625 C 525.582031 112.445312 525.992188 114.085938 525.992188 115.941406 C 526.015625 117.796875 525.617188 119.445312 524.796875 120.886719 C 523.976562 122.324219 522.839844 123.449219 521.386719 124.257812 C 519.933594 125.066406 518.289062 125.484375 516.457031 125.507812 Z M 516.457031 123.257812 C 517.8125 123.257812 519.015625 122.957031 520.0625 122.347656 C 521.113281 121.742188 521.941406 120.886719 522.546875 119.777344 C 523.152344 118.671875 523.46875 117.394531 523.492188 115.941406 C 523.46875 114.46875 523.152344 113.183594 522.546875 112.085938 C 521.941406 110.992188 521.113281 110.140625 520.0625 109.535156 C 519.015625 108.929688 517.8125 108.625 516.457031 108.625 C 515.148438 108.625 513.96875 108.929688 512.921875 109.535156 C 511.871094 110.140625 511.039062 110.992188 510.421875 112.085938 C 509.800781 113.183594 509.480469 114.46875 509.457031 115.941406 C 509.480469 117.394531 509.800781 118.671875 510.421875 119.777344 C 511.039062 120.886719 511.867188 121.75 512.902344 122.367188 C 513.9375 122.984375 515.125 123.285156 516.457031 123.257812 Z M 516.457031 123.257812 " fill-opacity="1" fill-rule="nonzero"/><path fill="#ffffff" d="M 531.207031 125.328125 L 531.207031 106.589844 L 533.636719 106.589844 L 533.636719 111.695312 L 533.386719 110.800781 C 533.910156 109.375 534.789062 108.285156 536.027344 107.535156 C 537.265625 106.785156 538.800781 106.414062 540.636719 106.414062 L 540.636719 108.875 C 540.539062 108.875 540.445312 108.871094 540.347656 108.859375 C 540.253906 108.84375 540.160156 108.839844 540.0625 108.839844 C 538.089844 108.839844 536.539062 109.441406 535.421875 110.640625 C 534.300781 111.84375 533.742188 113.550781 533.742188 115.765625 L 533.742188 125.332031 L 531.207031 125.332031 Z M 531.207031 125.328125 " fill-opacity="1" fill-rule="nonzero"/><path fill="#ffffff" d="M 568.671875 106.410156 C 570.195312 106.410156 571.523438 106.703125 572.65625 107.285156 C 573.785156 107.867188 574.667969 108.753906 575.296875 109.945312 C 575.929688 111.136719 576.246094 112.632812 576.246094 114.441406 L 576.246094 125.328125 L 573.707031 125.328125 L 573.707031 114.691406 C 573.707031 112.71875 573.238281 111.222656 572.296875 110.210938 C 571.355469 109.199219 570.03125 108.695312 568.316406 108.695312 C 567.03125 108.695312 565.914062 108.964844 564.976562 109.5 C 564.035156 110.035156 563.308594 110.808594 562.796875 111.816406 C 562.285156 112.828125 562.027344 114.046875 562.027344 115.476562 L 562.027344 125.328125 L 559.492188 125.328125 L 559.492188 114.691406 C 559.492188 112.71875 559.015625 111.222656 558.066406 110.210938 C 557.113281 109.199219 555.777344 108.695312 554.0625 108.695312 C 552.800781 108.695312 551.695312 108.964844 550.742188 109.5 C 549.789062 110.035156 549.058594 110.808594 548.546875 111.816406 C 548.035156 112.828125 547.777344 114.046875 547.777344 115.476562 L 547.777344 125.328125 L 545.242188 125.328125 L 545.242188 106.589844 L 547.671875 106.589844 L 547.671875 111.65625 L 547.277344 110.765625 C 547.847656 109.410156 548.769531 108.34375 550.046875 107.570312 C 551.320312 106.796875 552.824219 106.410156 554.5625 106.410156 C 556.398438 106.410156 557.957031 106.867188 559.242188 107.785156 C 560.527344 108.699219 561.359375 110.074219 561.742188 111.90625 L 560.742188 111.515625 C 561.289062 109.992188 562.257812 108.761719 563.652344 107.820312 C 565.046875 106.882812 566.71875 106.410156 568.671875 106.410156 Z M 568.671875 106.410156 " fill-opacity="1" fill-rule="nonzero"/><path fill="#ffffff" d="M 594.890625 125.328125 L 594.890625 121.1875 L 594.78125 120.511719 L 594.78125 113.585938 C 594.78125 111.992188 594.335938 110.765625 593.441406 109.910156 C 592.550781 109.050781 591.222656 108.625 589.460938 108.625 C 588.246094 108.625 587.089844 108.828125 585.996094 109.230469 C 584.902344 109.636719 583.972656 110.171875 583.210938 110.835938 L 582.066406 108.945312 C 583.019531 108.136719 584.160156 107.511719 585.496094 107.070312 C 586.828125 106.632812 588.234375 106.410156 589.710938 106.410156 C 592.136719 106.410156 594.011719 107.011719 595.335938 108.214844 C 596.65625 109.414062 597.316406 111.242188 597.316406 113.691406 L 597.316406 125.328125 L 594.886719 125.328125 Z M 588.425781 125.507812 C 587.019531 125.507812 585.800781 125.277344 584.761719 124.8125 C 583.726562 124.347656 582.9375 123.707031 582.386719 122.882812 C 581.839844 122.0625 581.566406 121.117188 581.566406 120.046875 C 581.566406 119.070312 581.796875 118.183594 582.261719 117.386719 C 582.726562 116.589844 583.488281 115.949219 584.546875 115.460938 C 585.609375 114.972656 587.03125 114.726562 588.816406 114.726562 L 595.28125 114.726562 L 595.28125 116.621094 L 588.886719 116.621094 C 587.078125 116.621094 585.820312 116.941406 585.121094 117.582031 C 584.417969 118.226562 584.066406 119.023438 584.066406 119.976562 C 584.066406 121.046875 584.480469 121.902344 585.316406 122.542969 C 586.148438 123.1875 587.316406 123.507812 588.816406 123.507812 C 590.246094 123.507812 591.476562 123.179688 592.511719 122.527344 C 593.546875 121.871094 594.304688 120.925781 594.78125 119.6875 L 595.351562 121.4375 C 594.875 122.675781 594.050781 123.664062 592.871094 124.398438 C 591.691406 125.136719 590.210938 125.507812 588.425781 125.507812 Z M 588.425781 125.507812 " fill-opacity="1" fill-rule="nonzero"/><g clip-path="url(#8f5962da52)"><g clip-path="url(#ca8d5d264c)"><path fill="url(#d226a7d74f)" d="M 467.171875 0 L 467.171875 78.105469 L 646.703125 78.105469 L 646.703125 0 Z M 467.171875 0 " fill-rule="nonzero"/></g></g><g clip-path="url(#05693a4600)"><g clip-path="url(#3b516b4521)"><g transform="matrix(1, 0, 0, 1, 211, 62)"><g clip-path="url(#260377f72d)"><g clip-path="url(#e4d4c0729f)"><g clip-path="url(#0f79d36725)"><path fill="#ffffff" d="M 0.152344 0.488281 L 7.515625 0.488281 L 7.515625 7.855469 L 0.152344 7.855469 Z M 0.152344 0.488281 " fill-opacity="1" fill-rule="nonzero"/></g></g></g></g></g></g></svg>